<svg width="1200" height="630" viewBox="0 0 1200 630" fill="none" xmlns="http://www.w3.org/2000/svg">
  <defs>
    <linearGradient id="bg" x1="0" y1="0" x2="1200" y2="630" gradientUnits="userSpaceOnUse">
      <stop stop-color="#0F172A"/>
      <stop offset="1" stop-color="#1D4ED8"/>
    </linearGradient>
    <linearGradient id="card" x1="180" y1="120" x2="1020" y2="520" gradientUnits="userSpaceOnUse">
      <stop stop-color="#111827" stop-opacity="0.92"/>
      <stop offset="1" stop-color="#0B1220" stop-opacity="0.82"/>
    </linearGradient>
  </defs>
  <rect width="1200" height="630" rx="28" fill="url(#bg)"/>
  <circle cx="1030" cy="110" r="120" fill="#60A5FA" fill-opacity="0.22"/>
  <circle cx="220" cy="520" r="160" fill="#22C55E" fill-opacity="0.14"/>
  <rect x="118" y="94" width="964" height="442" rx="28" fill="url(#card)" stroke="#93C5FD" stroke-opacity="0.28"/>
  <rect x="160" y="144" width="148" height="36" rx="18" fill="#1D4ED8"/>
  <text x="184" y="167" fill="#EFF6FF" font-family="Arial, sans-serif" font-size="20" font-weight="700">OpenClaw × Feishu</text>
  <text x="160" y="252" fill="#F8FAFC" font-family="Arial, sans-serif" font-size="58" font-weight="700">把 OpenClaw 接进飞书群</text>
  <text x="160" y="314" fill="#F8FAFC" font-family="Arial, sans-serif" font-size="58" font-weight="700">不止能接，还能稳定跑</text>
  <text x="160" y="378" fill="#CBD5E1" font-family="Arial, sans-serif" font-size="28">chat_id 获取、自动配置、事件排障、轮询兜底，一套打通。</text>
  <g opacity="0.95">
    <rect x="160" y="430" width="182" height="48" rx="24" fill="#22C55E"/>
    <text x="194" y="460" fill="#052E16" font-family="Arial, sans-serif" font-size="24" font-weight="700">拿来就能用</text>
    <rect x="358" y="430" width="212" height="48" rx="24" fill="#1E293B" stroke="#60A5FA"/>
    <text x="392" y="460" fill="#DBEAFE" font-family="Arial, sans-serif" font-size="24" font-weight="700">事件模式 + 兜底模式</text>
  </g>
  <g>
    <rect x="760" y="180" width="258" height="264" rx="22" fill="#0F172A" stroke="#334155"/>
    <rect x="786" y="212" width="206" height="18" rx="9" fill="#2563EB" fill-opacity="0.28"/>
    <rect x="786" y="252" width="176" height="12" rx="6" fill="#94A3B8" fill-opacity="0.54"/>
    <rect x="786" y="278" width="144" height="12" rx="6" fill="#94A3B8" fill-opacity="0.4"/>
    <rect x="786" y="320" width="164" height="52" rx="16" fill="#1E3A8A"/>
    <text x="808" y="352" fill="#DBEAFE" font-family="Arial, sans-serif" font-size="22" font-weight="700">事件模式</text>
    <text x="808" y="396" fill="#BFDBFE" font-family="Arial, sans-serif" font-size="18">飞书消息 → OpenClaw → 群回复</text>
  </g>
</svg>
